M48
; DRILL file {KiCad 7.0.10-7.0.10~ubuntu22.04.1} date Wed 10 Jan 2024 03:32:59 PM PST
; FORMAT={-:-/ absolute / inch / decimal}
; #@! TF.CreationDate,2024-01-10T15:32:59-08:00
; #@! TF.GenerationSoftware,Kicad,Pcbnew,7.0.10-7.0.10~ubuntu22.04.1
; #@! TF.FileFunction,Plated,1,2,PTH
FMAT,2
INCH
; #@! TA.AperFunction,Plated,PTH,ViaDrill
T1C0.0157
; #@! TA.AperFunction,Plated,PTH,ComponentDrill
T2C0.0315
; #@! TA.AperFunction,Plated,PTH,ComponentDrill
T3C0.0394
; #@! TA.AperFunction,Plated,PTH,ComponentDrill
T4C0.0433
; #@! TA.AperFunction,Plated,PTH,ComponentDrill
T5C0.0598
; #@! TA.AperFunction,Plated,PTH,ComponentDrill
T6C0.0787
; #@! TA.AperFunction,Plated,PTH,ComponentDrill
T7C0.1063
%
G90
G05
T1
X3.2921Y-4.811
X3.3144Y-4.6771
X3.3144Y-4.7322
X3.3196Y-4.433
X3.3393Y-3.8259
X3.373Y-4.1054
X3.383Y-3.0654
X3.383Y-3.4854
X3.3924Y-4.6771
X3.3924Y-4.7322
X3.3977Y-4.433
X3.403Y-3.2854
X3.4705Y-4.6259
X3.4705Y-4.6771
X3.4705Y-4.7322
X3.4718Y-4.559
X3.4758Y-4.433
X3.4758Y-4.4921
X3.5486Y-4.6259
X3.5486Y-4.6771
X3.5486Y-4.7322
X3.5499Y-4.559
X3.5539Y-4.433
X3.5539Y-4.4921
X3.5629Y-3.2917
X3.603Y-4.0854
X3.611Y-4.1928
X3.6267Y-4.6259
X3.6267Y-4.6771
X3.6267Y-4.7322
X3.628Y-4.559
X3.632Y-4.433
X3.632Y-4.4921
X3.677Y-3.4644
X3.7048Y-4.6259
X3.7048Y-4.6771
X3.7048Y-4.7322
X3.7061Y-4.559
X3.7094Y-3.3897
X3.71Y-4.433
X3.71Y-4.4921
X3.713Y-4.0154
X3.723Y-3.7154
X3.769Y-4.2824
X3.7829Y-4.6259
X3.7829Y-4.6771
X3.7829Y-4.7322
X3.7842Y-4.559
X3.7881Y-4.433
X3.7881Y-4.4921
X3.819Y-4.0144
X3.911Y-3.3494
X3.929Y-4.4064
X3.9299Y-4.5747
X4.003Y-3.6954
X4.028Y-3.6204
X4.033Y-3.4554
X4.035Y-3.5344
X4.04Y-3.3404
X4.063Y-3.1754
X4.0712Y-3.6865
X4.1137Y-3.1153
X4.1415Y-4.5854
X4.143Y-4.1054
X4.153Y-3.7354
X4.19Y-3.4254
X4.193Y-3.7754
X4.203Y-3.3004
X4.213Y-3.6304
X4.218Y-4.2804
X4.3015Y-3.6287
X4.323Y-3.3254
X4.323Y-4.2354
X4.323Y-4.6804
X4.333Y-3.9654
X4.338Y-3.7354
X4.353Y-4.1054
X4.355Y-3.6214
X4.383Y-3.7554
X4.398Y-3.1554
X4.457Y-3.4014
X4.457Y-3.5974
X4.458Y-4.1754
X4.468Y-3.1254
X4.473Y-2.8154
X4.473Y-4.1004
X4.488Y-3.9754
X4.493Y-3.7154
X4.503Y-3.4254
X4.503Y-3.5954
X4.539Y-3.7534
X4.556Y-3.6183
X4.563Y-3.0354
X4.583Y-4.1254
X4.613Y-3.4254
X4.623Y-3.9754
X4.623Y-4.5404
X4.643Y-4.6654
X4.6499Y-3.368
X4.658Y-3.5954
X4.658Y-3.7654
X4.658Y-4.0254
X4.6944Y-3.9602
X4.696Y-3.4214
X4.703Y-4.1854
X4.7158Y-3.6993
X4.728Y-3.6254
X4.743Y-2.9154
X4.758Y-3.7554
X4.763Y-4.4954
X4.7779Y-3.2491
X4.793Y-4.1554
X4.8527Y-3.1247
X4.853Y-4.0054
X4.853Y-4.1854
X4.865Y-3.5834
X4.873Y-3.9654
X4.873Y-4.0554
X4.8743Y-2.8472
X4.9234Y-3.215
X4.93Y-3.6964
X4.953Y-3.2754
X4.9574Y-2.9987
X4.961Y-3.5714
X4.973Y-3.7654
X4.973Y-4.4554
X4.978Y-4.2354
X4.981Y-3.6254
X4.983Y-3.9654
X4.983Y-4.1404
X5.023Y-3.9754
X5.023Y-4.7304
X5.033Y-3.3654
X5.034Y-3.6334
X5.043Y-4.0554
X5.063Y-4.6004
X5.093Y-3.2054
X5.113Y-3.0754
X5.113Y-3.6354
X5.143Y-3.7554
X5.143Y-4.3254
X5.168Y-4.1354
X5.173Y-4.2254
X5.198Y-3.6254
X5.208Y-3.3004
X5.208Y-3.7154
X5.223Y-3.0454
X5.233Y-3.7554
X5.258Y-4.1954
X5.273Y-2.9054
X5.273Y-4.6554
X5.278Y-4.3954
X5.283Y-3.2554
X5.283Y-4.8554
X5.293Y-3.6254
X5.305Y-3.5904
X5.313Y-2.8554
X5.313Y-2.9554
X5.316Y-3.4344
X5.323Y-3.8254
X5.343Y-3.2054
X5.358Y-3.5854
X5.378Y-3.3654
X5.383Y-2.9554
X5.389Y-3.4364
X5.393Y-3.1354
X5.408Y-3.5894
X5.413Y-4.1854
X5.453Y-3.2754
X5.453Y-3.3454
X5.453Y-3.4454
X5.463Y-4.1154
X5.483Y-3.0154
X5.488Y-3.2404
X5.496Y-3.5904
X5.5142Y-3.0742
X5.5205Y-2.8479
X5.563Y-3.4154
X5.573Y-4.3554
X5.578Y-4.5554
X5.593Y-2.9254
X5.603Y-3.4394
X5.613Y-3.5954
X5.613Y-4.1754
X5.623Y-3.7054
X5.623Y-4.1254
X5.633Y-4.7354
X5.643Y-3.1654
X5.653Y-4.7854
X5.663Y-3.9054
X5.768Y-2.9604
X5.783Y-3.5854
X5.783Y-3.9054
X5.787Y-3.5444
X5.806Y-3.3434
X5.813Y-4.1254
X5.863Y-3.3754
X5.883Y-3.2924
X5.886Y-3.4264
X5.913Y-4.4954
X5.943Y-4.7654
X5.945Y-4.2384
X5.959Y-4.0174
X6.013Y-4.1054
X6.023Y-3.3504
X6.048Y-3.9554
X6.152Y-3.3024
X6.153Y-3.1254
X6.164Y-3.9634
X6.188Y-4.0354
X6.278Y-4.9054
X6.293Y-3.4704
X6.321Y-4.1294
X6.483Y-2.8654
X6.508Y-3.1954
X6.513Y-3.3554
X6.583Y-2.8254
X6.59Y-3.6584
X6.598Y-4.1554
X6.617Y-3.9064
X6.631Y-4.0214
T3
X3.333Y-2.7954
X3.533Y-2.5954
X3.728Y-2.5954
X4.104Y-4.872
X4.2078Y-3.5133
X4.283Y-4.9454
X4.3078Y-3.5133
X4.4078Y-3.5133
X4.5078Y-3.5133
X4.5476Y-4.4569
X4.5476Y-4.5554
X4.5476Y-4.6538
X4.6078Y-2.7133
X4.6078Y-3.5133
X4.7078Y-2.7133
X4.7078Y-3.5133
X4.8078Y-2.7133
X4.8078Y-3.5133
X4.9078Y-2.7133
X4.9078Y-3.5133
X5.0078Y-2.7133
X5.0078Y-3.5133
X5.1078Y-2.7133
X5.1078Y-3.5133
X5.1184Y-4.4569
X5.1184Y-4.6538
X5.2078Y-2.7133
X5.2078Y-3.5133
X5.3078Y-2.7133
X5.3078Y-3.5133
X5.4078Y-2.7133
X5.4078Y-3.5133
X5.4976Y-4.4569
X5.4976Y-4.5554
X5.4976Y-4.6538
X5.5078Y-2.7133
X5.5078Y-3.5133
X5.6078Y-2.7133
X5.6078Y-3.5133
X5.7078Y-2.7133
X5.7078Y-3.5133
X6.0684Y-4.4569
X6.0684Y-4.6538
X6.0734Y-2.7754
X6.3726Y-2.7754
X6.533Y-2.9554
T4
X4.0084Y-4.474
X4.0084Y-4.574
X4.0084Y-4.674
X6.3344Y-4.4533
X6.3444Y-4.3274
X6.3444Y-4.5833
X6.5216Y-4.3274
X6.5216Y-4.5833
X6.5324Y-4.4513
T5
X6.513Y-3.7954
X6.513Y-3.9954
T7
X3.339Y-4.9334
X3.3393Y-2.6154
X3.8616Y-3.8542
X3.8616Y-4.1377
X6.0568Y-3.2179
X6.0568Y-3.5013
X6.4824Y-4.9199
X6.5759Y-2.6354
T2
X3.6057Y-3.7302G85X3.6451Y-3.7302
G05
X3.6057Y-4.2617G85X3.6451Y-4.2617
G05
X6.3127Y-3.0939G85X6.2733Y-3.0939
G05
X6.3127Y-3.6254G85X6.2733Y-3.6254
G05
T3
X3.553Y-3.3821G85X3.553Y-3.4687
G05
X3.7302Y-3.6143G85X3.6436Y-3.6143
G05
X3.801Y-3.3742G85X3.801Y-3.4765
G05
T6
X4.8212Y-4.3349G85X4.8645Y-4.3349
G05
X4.8212Y-4.7758G85X4.8645Y-4.7758
G05
X5.7712Y-4.3349G85X5.8145Y-4.3349
G05
X5.7712Y-4.7758G85X5.8145Y-4.7758
G05
M30
