%TF.GenerationSoftware,KiCad,Pcbnew,7.0.10-7.0.10~ubuntu22.04.1*%
%TF.CreationDate,2024-01-10T15:33:04-08:00*%
%TF.ProjectId,eFuse_voltmeter_r6,65467573-655f-4766-9f6c-746d65746572,rev?*%
%TF.SameCoordinates,Original*%
%TF.FileFunction,Soldermask,Top*%
%TF.FilePolarity,Negative*%
%FSLAX46Y46*%
G04 Gerber Fmt 4.6, Leading zero omitted, Abs format (unit mm)*
G04 Created by KiCad (PCBNEW 7.0.10-7.0.10~ubuntu22.04.1) date 2024-01-10 15:33:04*
%MOMM*%
%LPD*%
G01*
G04 APERTURE LIST*
G04 Aperture macros list*
%AMRoundRect*
0 Rectangle with rounded corners*
0 $1 Rounding radius*
0 $2 $3 $4 $5 $6 $7 $8 $9 X,Y pos of 4 corners*
0 Add a 4 corners polygon primitive as box body*
4,1,4,$2,$3,$4,$5,$6,$7,$8,$9,$2,$3,0*
0 Add four circle primitives for the rounded corners*
1,1,$1+$1,$2,$3*
1,1,$1+$1,$4,$5*
1,1,$1+$1,$6,$7*
1,1,$1+$1,$8,$9*
0 Add four rect primitives between the rounded corners*
20,1,$1+$1,$2,$3,$4,$5,0*
20,1,$1+$1,$4,$5,$6,$7,0*
20,1,$1+$1,$6,$7,$8,$9,0*
20,1,$1+$1,$8,$9,$2,$3,0*%
G04 Aperture macros list end*
%ADD10RoundRect,0.250000X-0.850000X-0.350000X0.850000X-0.350000X0.850000X0.350000X-0.850000X0.350000X0*%
%ADD11RoundRect,0.249997X-2.950003X-2.650003X2.950003X-2.650003X2.950003X2.650003X-2.950003X2.650003X0*%
%ADD12C,4.500000*%
%ADD13RoundRect,0.237500X0.237500X-0.250000X0.237500X0.250000X-0.237500X0.250000X-0.237500X-0.250000X0*%
%ADD14RoundRect,0.237500X-0.250000X-0.237500X0.250000X-0.237500X0.250000X0.237500X-0.250000X0.237500X0*%
%ADD15RoundRect,0.237500X0.237500X-0.300000X0.237500X0.300000X-0.237500X0.300000X-0.237500X-0.300000X0*%
%ADD16C,2.000000*%
%ADD17RoundRect,0.250001X0.462499X0.624999X-0.462499X0.624999X-0.462499X-0.624999X0.462499X-0.624999X0*%
%ADD18RoundRect,0.250000X0.850000X0.350000X-0.850000X0.350000X-0.850000X-0.350000X0.850000X-0.350000X0*%
%ADD19RoundRect,0.249997X2.950003X2.650003X-2.950003X2.650003X-2.950003X-2.650003X2.950003X-2.650003X0*%
%ADD20RoundRect,0.237500X-0.237500X0.250000X-0.237500X-0.250000X0.237500X-0.250000X0.237500X0.250000X0*%
%ADD21RoundRect,0.237500X0.300000X0.237500X-0.300000X0.237500X-0.300000X-0.237500X0.300000X-0.237500X0*%
%ADD22C,4.000000*%
%ADD23O,2.800000X1.600000*%
%ADD24RoundRect,0.237500X0.250000X0.237500X-0.250000X0.237500X-0.250000X-0.237500X0.250000X-0.237500X0*%
%ADD25C,1.700000*%
%ADD26R,2.000000X4.600000*%
%ADD27O,2.000000X4.200000*%
%ADD28O,4.200000X2.000000*%
%ADD29RoundRect,0.150000X0.587500X0.150000X-0.587500X0.150000X-0.587500X-0.150000X0.587500X-0.150000X0*%
%ADD30RoundRect,0.237500X-0.300000X-0.237500X0.300000X-0.237500X0.300000X0.237500X-0.300000X0.237500X0*%
%ADD31RoundRect,0.150000X-0.587500X-0.150000X0.587500X-0.150000X0.587500X0.150000X-0.587500X0.150000X0*%
%ADD32RoundRect,0.250000X0.400000X0.625000X-0.400000X0.625000X-0.400000X-0.625000X0.400000X-0.625000X0*%
%ADD33RoundRect,0.250001X-0.462499X-0.624999X0.462499X-0.624999X0.462499X0.624999X-0.462499X0.624999X0*%
%ADD34RoundRect,0.225000X0.225000X0.375000X-0.225000X0.375000X-0.225000X-0.375000X0.225000X-0.375000X0*%
%ADD35RoundRect,0.225000X-0.225000X-0.375000X0.225000X-0.375000X0.225000X0.375000X-0.225000X0.375000X0*%
%ADD36RoundRect,0.249999X0.450001X1.425001X-0.450001X1.425001X-0.450001X-1.425001X0.450001X-1.425001X0*%
%ADD37R,3.000000X3.000000*%
%ADD38C,3.000000*%
%ADD39RoundRect,0.150000X0.150000X-0.825000X0.150000X0.825000X-0.150000X0.825000X-0.150000X-0.825000X0*%
%ADD40O,3.500000X3.500000*%
%ADD41R,2.000000X1.905000*%
%ADD42O,2.000000X1.905000*%
%ADD43R,1.700000X1.700000*%
%ADD44O,1.700000X1.700000*%
%ADD45R,2.000000X2.000000*%
%ADD46RoundRect,0.250000X-0.550000X-0.550000X0.550000X-0.550000X0.550000X0.550000X-0.550000X0.550000X0*%
%ADD47C,1.600000*%
%ADD48O,4.100000X3.000000*%
%ADD49RoundRect,0.075000X-0.650000X-0.075000X0.650000X-0.075000X0.650000X0.075000X-0.650000X0.075000X0*%
%ADD50RoundRect,0.225000X-0.375000X0.225000X-0.375000X-0.225000X0.375000X-0.225000X0.375000X0.225000X0*%
G04 APERTURE END LIST*
D10*
%TO.C,Q2*%
X141300200Y-92592200D03*
D11*
X147600200Y-94872200D03*
D10*
X141300200Y-97152200D03*
%TD*%
D12*
%TO.C,H4*%
X84810600Y-125307400D03*
%TD*%
D13*
%TO.C,R21*%
X138760200Y-124746700D03*
X138760200Y-122921700D03*
%TD*%
D14*
%TO.C,R12*%
X140641700Y-103006200D03*
X142466700Y-103006200D03*
%TD*%
D15*
%TO.C,C7*%
X104216200Y-120378700D03*
X104216200Y-118653700D03*
%TD*%
D14*
%TO.C,R9*%
X136069700Y-73288200D03*
X137894700Y-73288200D03*
%TD*%
D12*
%TO.C,H2*%
X84818200Y-66430200D03*
%TD*%
D16*
%TO.C,TP_Alert1*%
X94691200Y-65922200D03*
%TD*%
D13*
%TO.C,R32*%
X132156200Y-110776700D03*
X132156200Y-108951700D03*
%TD*%
D17*
%TO.C,D8*%
X144057700Y-123834200D03*
X141082700Y-123834200D03*
%TD*%
D12*
%TO.C,H1*%
X167028200Y-66938200D03*
%TD*%
D18*
%TO.C,Q1*%
X110312200Y-102486200D03*
D19*
X104012200Y-100206200D03*
D18*
X110312200Y-97926200D03*
%TD*%
D16*
%TO.C,PWR_OUT1*%
X165938200Y-75066200D03*
%TD*%
D20*
%TO.C,R6*%
X107010200Y-105649700D03*
X107010200Y-107474700D03*
%TD*%
D13*
%TO.C,R20*%
X155524200Y-124238700D03*
X155524200Y-122413700D03*
%TD*%
D21*
%TO.C,C12*%
X156132700Y-108086200D03*
X154407700Y-108086200D03*
%TD*%
D22*
%TO.C,J2*%
X98085305Y-105097016D03*
X98085305Y-97897016D03*
D23*
X92085305Y-108247016D03*
X92085305Y-94747016D03*
%TD*%
D21*
%TO.C,C10*%
X114323200Y-77606200D03*
X112598200Y-77606200D03*
%TD*%
D24*
%TO.C,R3*%
X138690700Y-101258200D03*
X136865700Y-101258200D03*
%TD*%
D25*
%TO.C,J1*%
X86546200Y-87004200D03*
D26*
X96546200Y-87004200D03*
D27*
X90246200Y-87004200D03*
D28*
X93646200Y-91804200D03*
%TD*%
D14*
%TO.C,R13*%
X144197700Y-104784200D03*
X146022700Y-104784200D03*
%TD*%
D24*
%TO.C,R16*%
X165680600Y-119288200D03*
X163855600Y-119288200D03*
%TD*%
D14*
%TO.C,R17*%
X160375800Y-119288200D03*
X162200800Y-119288200D03*
%TD*%
D29*
%TO.C,Q3*%
X146223200Y-102940200D03*
X146223200Y-101040200D03*
X144348200Y-101990200D03*
%TD*%
D20*
%TO.C,R4*%
X158318200Y-106157700D03*
X158318200Y-107982700D03*
%TD*%
D30*
%TO.C,C16*%
X135230700Y-107797200D03*
X136955700Y-107797200D03*
%TD*%
D31*
%TO.C,D1*%
X103280700Y-105748200D03*
X103280700Y-107648200D03*
X105155700Y-106698200D03*
%TD*%
D21*
%TO.C,C2*%
X94156700Y-80400200D03*
X92431700Y-80400200D03*
%TD*%
D16*
%TO.C,TP_5V1*%
X104241600Y-123748800D03*
%TD*%
D15*
%TO.C,C17*%
X143332200Y-76182700D03*
X143332200Y-74457700D03*
%TD*%
%TO.C,C9*%
X111582200Y-122410700D03*
X111582200Y-120685700D03*
%TD*%
D20*
%TO.C,R31*%
X113106200Y-109459700D03*
X113106200Y-111284700D03*
%TD*%
%TO.C,R33*%
X138125200Y-109459700D03*
X138125200Y-111284700D03*
%TD*%
D31*
%TO.C,D4*%
X99136200Y-122818200D03*
X99136200Y-124718200D03*
X101011200Y-123768200D03*
%TD*%
D16*
%TO.C,GND1*%
X108788200Y-125612200D03*
%TD*%
D14*
%TO.C,R11*%
X103105700Y-109298200D03*
X104930700Y-109298200D03*
%TD*%
D32*
%TO.C,R15*%
X96876200Y-125358200D03*
X93776200Y-125358200D03*
%TD*%
D20*
%TO.C,R35*%
X111328200Y-109459700D03*
X111328200Y-111284700D03*
%TD*%
D33*
%TO.C,D6*%
X125842700Y-123834200D03*
X128817700Y-123834200D03*
%TD*%
D34*
%TO.C,D3*%
X107390200Y-111896200D03*
X104090200Y-111896200D03*
%TD*%
D13*
%TO.C,R28*%
X137236200Y-115094700D03*
X137236200Y-113269700D03*
%TD*%
D33*
%TO.C,D7*%
X150226700Y-123834200D03*
X153201700Y-123834200D03*
%TD*%
D24*
%TO.C,R5*%
X90500200Y-80400200D03*
X88675200Y-80400200D03*
%TD*%
D35*
%TO.C,D10*%
X112600200Y-75320200D03*
X115900200Y-75320200D03*
%TD*%
D36*
%TO.C,R1*%
X138538200Y-97938200D03*
X132438200Y-97938200D03*
%TD*%
D37*
%TO.C,J4*%
X165430200Y-101482200D03*
D38*
X165430200Y-96402200D03*
%TD*%
D14*
%TO.C,R7*%
X140641700Y-101228200D03*
X142466700Y-101228200D03*
%TD*%
D12*
%TO.C,H3*%
X164652105Y-124964816D03*
%TD*%
D20*
%TO.C,R25*%
X113106200Y-116825700D03*
X113106200Y-118650700D03*
%TD*%
D24*
%TO.C,R24*%
X126464700Y-84718200D03*
X124639700Y-84718200D03*
%TD*%
D39*
%TO.C,U4*%
X145237200Y-78303200D03*
X146507200Y-78303200D03*
X147777200Y-78303200D03*
X149047200Y-78303200D03*
X149047200Y-73353200D03*
X147777200Y-73353200D03*
X146507200Y-73353200D03*
X145237200Y-73353200D03*
%TD*%
D40*
%TO.C,U3*%
X85153000Y-116179600D03*
D41*
X101813000Y-118719600D03*
D42*
X101813000Y-116179600D03*
X101813000Y-113639600D03*
%TD*%
D17*
%TO.C,D5*%
X119927700Y-123834200D03*
X116952700Y-123834200D03*
%TD*%
D43*
%TO.C,U2*%
X106878200Y-89238200D03*
D44*
X109418200Y-89238200D03*
X111958200Y-89238200D03*
X114498200Y-89238200D03*
X117038200Y-89238200D03*
X119578200Y-89238200D03*
X122118200Y-89238200D03*
X124658200Y-89238200D03*
X127198200Y-89238200D03*
X129738200Y-89238200D03*
X132278200Y-89238200D03*
X134818200Y-89238200D03*
X137358200Y-89238200D03*
X139898200Y-89238200D03*
X142438200Y-89238200D03*
X144978200Y-89238200D03*
X144978200Y-68918200D03*
X142438200Y-68918200D03*
X139898200Y-68918200D03*
X137358200Y-68918200D03*
X134818200Y-68918200D03*
X132278200Y-68918200D03*
X129738200Y-68918200D03*
X127198200Y-68918200D03*
X124658200Y-68918200D03*
X122118200Y-68918200D03*
X119578200Y-68918200D03*
X117038200Y-68918200D03*
%TD*%
D45*
%TO.C,BZ1*%
X161864200Y-70494200D03*
D16*
X154264200Y-70494200D03*
%TD*%
D30*
%TO.C,C13*%
X115037700Y-107578200D03*
X116762700Y-107578200D03*
%TD*%
%TO.C,C6*%
X109957700Y-86496200D03*
X111682700Y-86496200D03*
%TD*%
%TO.C,C8*%
X104115700Y-115198200D03*
X105840700Y-115198200D03*
%TD*%
D16*
%TO.C,Vin1*%
X84658200Y-71002200D03*
%TD*%
%TO.C,GND2*%
X89738200Y-65922200D03*
%TD*%
D31*
%TO.C,D2*%
X135966200Y-92318200D03*
X135966200Y-94218200D03*
X137841200Y-93268200D03*
%TD*%
D24*
%TO.C,R23*%
X126464700Y-86496200D03*
X124639700Y-86496200D03*
%TD*%
D13*
%TO.C,R19*%
X131648200Y-121952700D03*
X131648200Y-120127700D03*
%TD*%
%TO.C,R22*%
X151841200Y-76994700D03*
X151841200Y-75169700D03*
%TD*%
D31*
%TO.C,Q4*%
X145442700Y-81736200D03*
X145442700Y-83636200D03*
X147317700Y-82686200D03*
%TD*%
D16*
%TO.C,SW1*%
X161148200Y-116416200D03*
X161148200Y-109916200D03*
X165923400Y-113063400D03*
X160894200Y-113114200D03*
X165648200Y-116416200D03*
X165648200Y-109916200D03*
%TD*%
D46*
%TO.C,SW3*%
X139638200Y-113206200D03*
D47*
X139638200Y-118206200D03*
X139638200Y-115706200D03*
X154138200Y-113206200D03*
X154138200Y-118206200D03*
D48*
X147138200Y-110106200D03*
X147138200Y-121306200D03*
%TD*%
D22*
%TO.C,J3*%
X153842200Y-81734200D03*
X153842200Y-88934200D03*
D23*
X159842200Y-78584200D03*
X159842200Y-92084200D03*
%TD*%
D49*
%TO.C,U1*%
X125384200Y-101244200D03*
X125384200Y-101744200D03*
X125384200Y-102244200D03*
X125384200Y-102744200D03*
X125384200Y-103244200D03*
X129784200Y-103244200D03*
X129784200Y-102744200D03*
X129784200Y-102244200D03*
X129784200Y-101744200D03*
X129784200Y-101244200D03*
%TD*%
D15*
%TO.C,C3*%
X121234200Y-102598700D03*
X121234200Y-100873700D03*
%TD*%
D30*
%TO.C,C15*%
X138786700Y-107797200D03*
X140511700Y-107797200D03*
%TD*%
%TO.C,C5*%
X127991700Y-105038200D03*
X129716700Y-105038200D03*
%TD*%
D13*
%TO.C,R18*%
X114630200Y-122460700D03*
X114630200Y-120635700D03*
%TD*%
%TO.C,R26*%
X113106200Y-115094700D03*
X113106200Y-113269700D03*
%TD*%
%TO.C,R29*%
X132156200Y-114737200D03*
X132156200Y-112912200D03*
%TD*%
D24*
%TO.C,R10*%
X115542700Y-73034200D03*
X113717700Y-73034200D03*
%TD*%
D33*
%TO.C,FB1*%
X93838700Y-122818200D03*
X96813700Y-122818200D03*
%TD*%
D30*
%TO.C,C1*%
X161519700Y-106816200D03*
X163244700Y-106816200D03*
%TD*%
D13*
%TO.C,R34*%
X156286200Y-111538700D03*
X156286200Y-109713700D03*
%TD*%
D20*
%TO.C,R36*%
X136347200Y-109713700D03*
X136347200Y-111538700D03*
%TD*%
D21*
%TO.C,C4*%
X136828700Y-103006200D03*
X135103700Y-103006200D03*
%TD*%
D14*
%TO.C,R8*%
X136069700Y-71510200D03*
X137894700Y-71510200D03*
%TD*%
D30*
%TO.C,C14*%
X111481700Y-107578200D03*
X113206700Y-107578200D03*
%TD*%
D21*
%TO.C,C11*%
X129843700Y-108086200D03*
X128118700Y-108086200D03*
%TD*%
D20*
%TO.C,R27*%
X137236200Y-117079700D03*
X137236200Y-118904700D03*
%TD*%
D46*
%TO.C,SW2*%
X115508200Y-113206200D03*
D47*
X115508200Y-118206200D03*
X115508200Y-115706200D03*
X130008200Y-113206200D03*
X130008200Y-118206200D03*
D48*
X123008200Y-110106200D03*
X123008200Y-121306200D03*
%TD*%
D14*
%TO.C,R2*%
X133305700Y-101258200D03*
X135130700Y-101258200D03*
%TD*%
D50*
%TO.C,D9*%
X107772200Y-116850200D03*
X107772200Y-120150200D03*
%TD*%
D13*
%TO.C,R14*%
X148158200Y-102902700D03*
X148158200Y-101077700D03*
%TD*%
%TO.C,R30*%
X156286200Y-115094700D03*
X156286200Y-113269700D03*
%TD*%
M02*
